<svg width="50" height="38" viewBox="0 0 50 38" fill="none" xmlns="http://www.w3.org/2000/svg">
<path d="M41.631 3.66666C38.4545 2.20467 35.101 1.16749 31.6563 0.581604C31.1849 1.42871 30.7584 2.30026 30.3786 3.19263C26.7093 2.63679 22.9779 2.63679 19.3086 3.19263C18.9285 2.30036 18.502 1.42881 18.0309 0.581604C14.5839 1.17244 11.2283 2.21208 8.0485 3.67431C1.73584 13.0633 0.0245804 22.2191 0.880211 31.2449C4.57706 33.9907 8.71489 36.0789 13.1138 37.4188C14.1043 36.0796 14.9808 34.6588 15.734 33.1716C14.3035 32.6345 12.9228 31.9719 11.6079 31.1913C11.954 30.939 12.2924 30.6791 12.6195 30.4268C16.4455 32.2355 20.6213 33.1734 24.8493 33.1734C29.0772 33.1734 33.2531 32.2355 37.0791 30.4268C37.4099 30.6982 37.7484 30.9582 38.0906 31.1913C36.7732 31.9731 35.39 32.637 33.957 33.1754C34.7092 34.6619 35.5857 36.0815 36.5771 37.4188C40.9798 36.0843 45.1208 33.997 48.8183 31.2487C49.8223 20.7817 47.1033 11.71 41.631 3.66666ZM16.8178 25.6941C14.4334 25.6941 12.4635 23.5188 12.4635 20.8428C12.4635 18.1668 14.365 15.9725 16.8102 15.9725C19.2554 15.9725 21.21 18.1668 21.1682 20.8428C21.1263 23.5188 19.2478 25.6941 16.8178 25.6941ZM32.8808 25.6941C30.4926 25.6941 28.5304 23.5188 28.5304 20.8428C28.5304 18.1668 30.4318 15.9725 32.8808 15.9725C35.3298 15.9725 37.2692 18.1668 37.2274 20.8428C37.1856 23.5188 35.3108 25.6941 32.8808 25.6941Z" fill="#1D203E"/>
</svg>
