<svg width="50" height="42" viewBox="0 0 50 42" fill="none" xmlns="http://www.w3.org/2000/svg">
<path d="M33.5383 24.4153C34.4593 24.4153 35.2651 24.8758 35.9366 25.8063C36.6081 26.7272 36.9534 27.8688 36.9534 29.2214C36.9534 30.574 36.6177 31.7156 35.9366 32.6365C35.2651 33.5575 34.4593 34.0275 33.5383 34.0275C32.5407 34.0275 31.7061 33.5671 31.025 32.6365C30.3534 31.7156 30.0081 30.574 30.0081 29.2214C30.0081 27.8688 30.3439 26.7272 31.025 25.8063C31.7061 24.8758 32.5502 24.4153 33.5383 24.4153ZM45.6063 11.9252C48.2444 14.7743 49.5587 18.2278 49.5587 22.2857C49.5587 24.9238 49.2517 27.2836 48.6473 29.3845C48.043 31.4854 47.2755 33.1929 46.3546 34.5072C45.4337 35.8214 44.2921 36.9822 42.9395 37.9799C41.5869 38.9775 40.3398 39.7066 39.1982 40.1671C38.0566 40.6275 36.7616 40.9825 35.3034 41.2319C33.8453 41.4813 32.7421 41.6252 31.9939 41.6636C31.2456 41.702 30.4494 41.7211 29.5956 41.7211C29.3845 41.7211 28.7418 41.7403 27.677 41.7787C26.6122 41.8171 25.72 41.8363 25.0101 41.8363C24.3002 41.8363 23.4081 41.8171 22.3433 41.7787C21.2784 41.7403 20.6357 41.7211 20.4247 41.7211C19.5709 41.7211 18.7651 41.702 18.0264 41.6636C17.2782 41.6252 16.175 41.4813 14.7168 41.2319C13.2587 40.9825 11.954 40.6275 10.822 40.1671C9.66129 39.7066 8.4142 38.9775 7.06158 37.9799C5.70897 36.9822 4.5674 35.831 3.64647 34.5072C2.72554 33.1929 1.9581 31.4854 1.35374 29.3845C0.749375 27.2836 0.442398 24.9142 0.442398 22.2857C0.442398 18.2278 1.75664 14.7743 4.39472 11.9252C4.10693 11.7813 4.08775 10.3615 4.33717 7.65631C4.58658 4.95108 5.17176 2.4569 6.10228 0.18335C9.3735 0.538291 13.4314 2.38974 18.2758 5.73771C19.9162 5.30602 22.1514 5.09498 25.0005 5.09498C27.9936 5.09498 30.2287 5.30602 31.7252 5.73771C33.9316 4.2412 36.0517 3.03248 38.0758 2.11155C40.1 1.19062 41.5773 0.653408 42.5078 0.509513L43.8988 0.18335C44.8197 2.4569 45.4145 4.95108 45.6639 7.65631C45.9133 10.3615 45.8941 11.7813 45.6063 11.9252ZM25.1061 39.3613C31.0154 39.3613 35.4857 38.6514 38.5075 37.222C41.5293 35.7926 43.045 32.8764 43.045 28.4636C43.045 25.9022 42.0857 23.763 40.1575 22.0554C39.1598 21.1345 38.0087 20.5589 36.6848 20.3479C35.3706 20.1368 33.3561 20.1368 30.6508 20.3479C27.9456 20.5589 26.0941 20.6645 25.0965 20.6645H25.0005H24.895C23.7534 20.6645 22.2761 20.5973 20.463 20.4534C18.65 20.3095 17.2206 20.2232 16.1941 20.1848C15.1581 20.1464 14.0453 20.2711 12.827 20.5589C11.6183 20.8467 10.6206 21.3456 9.83397 22.0554C7.99211 23.7054 7.06158 25.8447 7.06158 28.4732C7.06158 32.886 8.5581 35.8022 11.5415 37.2316C14.525 38.661 18.9761 39.3708 24.8854 39.3708H25.1061M16.5683 24.4153C17.4892 24.4153 18.295 24.8758 18.9665 25.8063C19.638 26.7272 19.9834 27.8688 19.9834 29.2214C19.9834 30.574 19.6476 31.7156 18.9665 32.6365C18.295 33.5575 17.4892 34.0275 16.5683 34.0275C15.5706 34.0275 14.736 33.5671 14.0549 32.6365C13.3834 31.7156 13.038 30.574 13.038 29.2214C13.038 27.8688 13.3738 26.7272 14.0549 25.8063C14.736 24.8758 15.5706 24.4153 16.5683 24.4153Z" fill="#fff"/>
</svg>
