<svg width="20" height="18" viewBox="0 0 20 18" fill="none" xmlns="http://www.w3.org/2000/svg">
<path d="M17.783 0.0225847C17.7114 0.0225847 17.6875 0.0677541 17.6397 0.0903388L8.68467 6.09787C8.58915 6.16562 8.44587 6.3463 8.37423 6.45922L8.06379 7.02384C9.78316 7.54329 11.0966 8.78545 11.6458 10.4115L12.2428 10.1179C12.3622 10.0502 12.5294 9.93726 12.6249 9.82434L18.977 1.35508C19.0487 1.24216 19.0726 1.15182 18.977 1.06148L17.9263 0.0677541C17.8785 0.0225847 17.8308 0 17.783 0V0.0225847ZM6.36829 8.98871C4.60116 8.98871 3.23999 10.3664 3.23999 12.0151C3.23999 14.2509 1.92657 16.1932 0.0400391 17.2321C0.971367 17.729 2.09374 18 3.23999 18C6.75037 18 9.59212 15.335 9.59212 11.9925C9.59212 10.3212 8.13543 8.96612 6.39217 8.96612L6.36829 8.98871Z" fill="white"/>
</svg>
