<svg width="94" height="94" viewBox="0 0 94 94" fill="none" xmlns="http://www.w3.org/2000/svg">
<rect width="94" height="94" rx="10" fill="#D9D9D9"/>
<path d="M46.5 8.00049C36.7375 8.00049 28.75 17.3805 28.75 28.938C28.75 40.4955 36.7375 49.8755 46.5 49.8755C56.2625 49.8755 64.25 40.4955 64.25 28.938C64.25 17.3805 56.2625 8.00049 46.5 8.00049ZM27.9513 49.8755C18.5438 50.2942 11 57.5805 11 66.6255V66.6255C11 71.2509 14.7496 75.0005 19.375 75.0005H73.625C78.2504 75.0005 82 71.2509 82 66.6255V66.6255C82 57.5805 74.545 50.2942 65.0488 49.8755C60.2563 54.9842 53.6887 58.2505 46.5 58.2505C39.3113 58.2505 32.7438 54.9842 27.9513 49.8755Z" fill="#6D6D6D"/>
</svg>
